<svg width="26" height="26" viewBox="0 0 26 26" fill="none" xmlns="http://www.w3.org/2000/svg">
<path d="M8.27273 0H2.36364C1.05824 0 0 1.05824 0 2.36364V8.27273C0 9.57813 1.05824 10.6364 2.36364 10.6364H8.27273C9.57813 10.6364 10.6364 9.57813 10.6364 8.27273V2.36364C10.6364 1.05824 9.57813 0 8.27273 0Z" fill="white"/>
<path d="M23.6363 0H17.7273C16.4219 0 15.3636 1.05824 15.3636 2.36364V8.27273C15.3636 9.57813 16.4219 10.6364 17.7273 10.6364H23.6363C24.9417 10.6364 26 9.57813 26 8.27273V2.36364C26 1.05824 24.9417 0 23.6363 0Z" fill="white"/>
<path d="M8.27273 15.3636H2.36364C1.05824 15.3636 0 16.4219 0 17.7273V23.6364C0 24.9418 1.05824 26 2.36364 26H8.27273C9.57813 26 10.6364 24.9418 10.6364 23.6364V17.7273C10.6364 16.4219 9.57813 15.3636 8.27273 15.3636Z" fill="white"/>
<path d="M23.6363 15.3636H17.7273C16.4219 15.3636 15.3636 16.4219 15.3636 17.7273V23.6364C15.3636 24.9418 16.4219 26 17.7273 26H23.6363C24.9417 26 26 24.9418 26 23.6364V17.7273C26 16.4219 24.9417 15.3636 23.6363 15.3636Z" fill="white"/>
</svg>
