<svg width="26" height="26" viewBox="0 0 26 26" fill="none" xmlns="http://www.w3.org/2000/svg">
<path d="M17.68 17.4984C16.7834 18.438 15.6254 19.0868 14.356 19.3609C13.0865 19.635 11.764 19.5217 10.5596 19.0358C9.35526 18.5498 8.32447 17.7136 7.6007 16.6352C6.87692 15.5569 6.49348 14.2861 6.50001 12.9874C6.50001 11.7803 6.83615 10.597 7.47078 9.57019C8.1054 8.54334 9.01343 7.71351 10.0931 7.17366C11.1728 6.63382 12.3815 6.4053 13.5837 6.5137C14.786 6.62211 15.9343 7.06316 16.9 7.78744V6.48744H19.5V14.9374C19.5 15.4546 19.7054 15.9506 20.0711 16.3163C20.4368 16.682 20.9328 16.8874 21.45 16.8874C21.9672 16.8874 22.4632 16.682 22.8289 16.3163C23.1946 15.9506 23.4 15.4546 23.4 14.9374V12.9874C23.3984 10.7249 22.659 8.5246 21.2939 6.72025C19.9289 4.91589 18.0126 3.60591 15.8358 2.98898C13.659 2.37204 11.3404 2.48181 9.2316 3.30164C7.12281 4.12146 5.3389 5.60662 4.15041 7.53186C2.96192 9.45711 2.43369 11.7174 2.64582 13.97C2.85796 16.2226 3.7989 18.3445 5.32593 20.014C6.85295 21.6835 8.88278 22.8095 11.1075 23.2212C13.3323 23.633 15.6306 23.3079 17.654 22.2954L18.824 24.6224C16.2954 25.8895 13.4225 26.2974 10.6411 25.7842C7.85968 25.271 5.32155 23.8646 3.41164 21.7786C1.50173 19.6925 0.32426 17.0404 0.057824 14.2246C-0.208612 11.4089 0.450523 8.58301 1.93525 6.1757C3.41998 3.76839 5.6493 1.91097 8.28507 0.885165C10.9208 -0.140643 13.8192 -0.278869 16.5407 0.491454C19.2621 1.26178 21.658 2.89862 23.3651 5.15371C25.0722 7.4088 25.9973 10.1591 26 12.9874H25.766H25.987V14.9374C25.9899 15.9127 25.6794 16.8631 25.1012 17.6485C24.523 18.4339 23.7077 19.0127 22.7756 19.2996C21.8435 19.5866 20.8438 19.5664 19.9241 19.2421C19.0043 18.9178 18.213 18.3065 17.667 17.4984H17.68ZM13 16.8874C14.0343 16.8874 15.0263 16.4765 15.7577 15.7452C16.4891 15.0138 16.9 14.0218 16.9 12.9874C16.9 11.9531 16.4891 10.9611 15.7577 10.2297C15.0263 9.49833 14.0343 9.08744 13 9.08744C11.9657 9.08744 10.9737 9.49833 10.2423 10.2297C9.5109 10.9611 9.10001 11.9531 9.10001 12.9874C9.10001 14.0218 9.5109 15.0138 10.2423 15.7452C10.9737 16.4765 11.9657 16.8874 13 16.8874Z" fill="white"/>
</svg>
