<svg width="26" height="19" viewBox="0 0 26 19" fill="none" xmlns="http://www.w3.org/2000/svg">
<path fill-rule="evenodd" clip-rule="evenodd" d="M6.95749 18.582C7.52862 19.1393 8.4546 19.1393 9.02573 18.582L25.5717 2.43621C26.1428 1.8789 26.1428 0.975305 25.5717 0.417988C25.0005 -0.139329 24.0745 -0.139329 23.5034 0.417988L6.95749 16.5638C6.38636 17.1211 6.38636 18.0247 6.95749 18.582Z" fill="white"/>
<path fill-rule="evenodd" clip-rule="evenodd" d="M0.428347 10.3155C0.999476 9.75819 1.92546 9.75819 2.49659 10.3155L8.70131 16.3702C9.27244 16.9275 9.27244 17.8311 8.70131 18.3884C8.13018 18.9457 7.2042 18.9457 6.63307 18.3884L0.428347 12.3337C-0.142782 11.7764 -0.142782 10.8728 0.428347 10.3155Z" fill="white"/>
</svg>
