<svg width="16" height="26" viewBox="0 0 16 26" fill="none" xmlns="http://www.w3.org/2000/svg">
<path d="M15.2812 11.3327L3.28065 0.497499C2.87269 0.131882 2.34763 -0.0436798 1.82045 0.00925935C1.29328 0.0621985 0.806943 0.339324 0.467955 0.77995C0.128966 1.22058 -0.0350503 1.78879 0.0118218 2.36016C0.0586939 2.93154 0.312635 3.4595 0.718035 3.82844L10.8747 12.9982L0.718035 22.168C0.311072 22.5364 0.0557282 23.0648 0.00809419 23.637C-0.0395399 24.2093 0.124432 24.7787 0.46399 25.22C0.803548 25.6614 1.29092 25.9387 1.81905 25.991C2.34718 26.0433 2.87287 25.8663 3.28065 25.4989L15.2812 14.6636C15.5062 14.4599 15.6872 14.2052 15.8114 13.9174C15.9356 13.6296 16 13.3158 16 12.9981C16 12.6804 15.9356 12.3666 15.8114 12.0788C15.6872 11.7911 15.5062 11.5363 15.2812 11.3327Z" fill="white"/>
</svg>
