<svg width="26" height="21" viewBox="0 0 26 21" fill="none" xmlns="http://www.w3.org/2000/svg">
<path d="M11.3304 20.9795L8.85251 20.2535C8.59253 20.1797 8.44629 19.9049 8.51941 19.6423L14.0643 0.355338C14.1374 0.0928182 14.4096 -0.0548492 14.6696 0.0189845L17.1475 0.745016C17.4075 0.818849 17.5537 1.09367 17.4806 1.35619L11.9357 20.6432C11.8585 20.9057 11.5904 21.0575 11.3304 20.9795ZM6.69955 16.3772L8.4666 14.474C8.65346 14.273 8.64128 13.953 8.43411 13.7685L4.75377 10.4993L8.43411 7.23007C8.64128 7.04549 8.65753 6.72554 8.4666 6.52455L6.69955 4.62128C6.51676 4.42439 6.20803 4.41209 6.00898 4.60077L0.155378 10.1383C-0.0517928 10.3311 -0.0517928 10.6633 0.155378 10.8561L6.00898 16.3978C6.20803 16.5864 6.51676 16.5782 6.69955 16.3772ZM19.991 16.4019L25.8446 10.8602C26.0518 10.6674 26.0518 10.3352 25.8446 10.1424L19.991 4.59667C19.796 4.41209 19.4873 4.42029 19.3004 4.61718L17.5334 6.52045C17.3465 6.72144 17.3587 7.04139 17.5659 7.22597L21.2462 10.4993L17.5659 13.7685C17.3587 13.953 17.3425 14.273 17.5334 14.474L19.3004 16.3772C19.4832 16.5782 19.792 16.5864 19.991 16.4019Z" fill="white"/>
</svg>
