<svg width="26" height="20" viewBox="0 0 26 20" fill="none" xmlns="http://www.w3.org/2000/svg">
<path d="M17.9267 0.684431L25.3352 8.35006C25.7784 8.7735 26 9.35025 26 9.9854C26 10.6206 25.7784 11.19 25.3352 11.6207L17.9267 19.3156C17.0477 20.2281 15.6148 20.2281 14.7358 19.3156C13.8568 18.403 13.8568 16.9283 14.7358 16.0157L18.296 12.3362L2.26761 12.3362C1.01193 12.3362 0 11.2922 0 10C0 8.70779 1.01193 7.66381 2.26023 7.66381L18.2886 7.66381L14.7284 3.9843C13.8494 3.07173 13.8494 1.59701 14.7284 0.684431C15.6148 -0.228144 17.0403 -0.228144 17.9267 0.684431Z" fill="white"/>
</svg>
