<svg width="27" height="28" viewBox="0 0 27 28" fill="none" xmlns="http://www.w3.org/2000/svg">
<path fill-rule="evenodd" clip-rule="evenodd" d="M13.5007 0.656738C6.04519 0.656738 0 6.8526 0 14.501C0 20.6185 3.8694 25.8018 9.23352 27.6341C9.90856 27.7606 10.1557 27.3327 10.1557 26.965C10.1557 26.6336 10.1436 25.7657 10.1376 24.6084C6.3827 25.4462 5.58713 22.7521 5.58713 22.7521C4.97236 21.1549 4.08638 20.727 4.08638 20.727C2.86287 19.8651 4.17678 19.8832 4.17678 19.8832C5.53288 19.9796 6.24408 21.3116 6.24408 21.3116C7.4495 23.4271 9.40228 22.8184 10.1738 22.4628C10.2943 21.5708 10.6439 20.956 11.0296 20.6125C8.03413 20.2629 4.88195 19.0756 4.88195 13.7717C4.88195 12.2589 5.40631 11.0234 6.26819 10.059C6.12957 9.70945 5.66548 8.29911 6.40078 6.39454C6.40078 6.39454 7.53388 6.02086 10.1135 7.81091C11.1923 7.50353 12.3435 7.35285 13.4947 7.34682C14.6398 7.35285 15.797 7.50353 16.8759 7.81091C19.4555 6.02086 20.5826 6.39454 20.5826 6.39454C21.3179 8.29911 20.8538 9.70945 20.7152 10.059C21.577 11.0294 22.1014 12.2649 22.1014 13.7717C22.1014 19.0876 18.9432 20.2569 15.9357 20.6004C16.4178 21.0283 16.8518 21.8721 16.8518 23.1619C16.8518 25.0123 16.8337 26.507 16.8337 26.959C16.8337 27.3267 17.0748 27.7606 17.7619 27.622C23.1381 25.7958 27.0014 20.6125 27.0014 14.501C27.0014 6.8526 20.9562 0.656738 13.5007 0.656738Z" fill="white"/>
</svg>
