<svg width="12" height="17" viewBox="0 0 12 17" fill="none" xmlns="http://www.w3.org/2000/svg">
<path d="M10.7503 7.60355L2.90996 0.730495C2.64343 0.498574 2.30039 0.38721 1.95596 0.42079C1.61154 0.454371 1.2938 0.63016 1.07233 0.909662C0.85086 1.18916 0.743702 1.5496 0.774325 1.91204C0.804948 2.27448 0.970856 2.60938 1.23572 2.84341L7.87144 8.66005L1.23572 14.4767C0.969836 14.7104 0.803011 15.0456 0.77189 15.4086C0.740769 15.7716 0.847897 16.1327 1.06974 16.4127C1.29159 16.6927 1.61 16.8686 1.95505 16.9018C2.30009 16.9349 2.64354 16.8227 2.90996 16.5896L10.7503 9.71646C10.8973 9.58726 11.0156 9.42568 11.0967 9.24314C11.1779 9.06059 11.2199 8.86153 11.2199 8.66001C11.2199 8.45849 11.1779 8.25943 11.0967 8.07688C11.0156 7.89433 10.8973 7.73275 10.7503 7.60355Z" fill="white"/>
</svg>
