<svg width="27" height="28" viewBox="0 0 27 28" fill="none" xmlns="http://www.w3.org/2000/svg">
<path d="M24.848 0.656738H1.98339C0.889016 0.656738 0.00146484 1.52312 0.00146484 2.59089V25.7231C0.00146484 26.7904 0.889016 27.6567 1.98339 27.6567H24.848C25.944 27.6567 26.8316 26.7898 26.8316 25.7231V2.59089C26.8316 1.52258 25.9435 0.656738 24.848 0.656738ZM8.13382 23.2592H4.08148V11.0674H8.13382V23.2592ZM6.10792 9.40196H6.08078C4.7215 9.40196 3.84209 8.46556 3.84209 7.29573C3.84209 6.09984 4.74864 5.18949 6.13452 5.18949C7.52095 5.18949 8.37376 6.09984 8.4009 7.29573C8.4009 8.46556 7.5204 9.40196 6.10792 9.40196ZM22.7467 23.2592H18.6943V16.7353C18.6943 15.0969 18.108 13.9787 16.6418 13.9787C15.5225 13.9787 14.8559 14.7327 14.5622 15.4612C14.4552 15.7212 14.4292 16.0849 14.4292 16.4497V23.2586H10.3769C10.3769 23.2586 10.4301 12.2096 10.3769 11.0669H14.4292V12.7926C14.9677 11.962 15.9307 10.7792 18.082 10.7792C20.7479 10.7792 22.7472 12.5222 22.7472 16.2673L22.7467 23.2592Z" fill="white"/>
</svg>
