<svg width="26" height="26" viewBox="0 0 26 26" fill="none" xmlns="http://www.w3.org/2000/svg">
<path d="M24.0778 0H1.92061C0.860091 0 0 0.834292 0 1.86252V24.138C0 25.1657 0.860091 26 1.92061 26H24.0778C25.1399 26 26 25.1652 26 24.138V1.86252C26 0.833769 25.1394 0 24.0778 0ZM7.88075 21.7653H3.95379V10.0251H7.88075V21.7653ZM5.91753 8.42133H5.89123C4.574 8.42133 3.7218 7.5196 3.7218 6.3931C3.7218 5.24151 4.6003 4.36487 5.94331 4.36487C7.28684 4.36487 8.11326 5.24151 8.13956 6.3931C8.13956 7.5196 7.28631 8.42133 5.91753 8.42133ZM22.0415 21.7653H18.1145V15.483C18.1145 13.9054 17.5464 12.8285 16.1255 12.8285C15.0408 12.8285 14.3948 13.5546 14.1102 14.2561C14.0066 14.5065 13.9813 14.8568 13.9813 15.208V21.7648H10.0544C10.0544 21.7648 10.1059 11.1249 10.0544 10.0246H13.9813V11.6864C14.5032 10.8866 15.4364 9.74752 17.5211 9.74752C20.1046 9.74752 22.042 11.426 22.042 15.0324L22.0415 21.7653Z" fill="white"/>
</svg>
