<svg width="24" height="26" viewBox="0 0 24 26" fill="none" xmlns="http://www.w3.org/2000/svg">
<path d="M12 12.2353C15.3137 12.2353 18 9.49633 18 6.11765C18 2.73896 15.3137 0 12 0C8.68629 0 6 2.73896 6 6.11765C6 9.49633 8.68629 12.2353 12 12.2353Z" fill="white"/>
<path d="M24 22.9412V24.4706C24 24.8762 23.842 25.2652 23.5607 25.5521C23.2794 25.8389 22.8978 26 22.5 26H1.5C1.10218 26 0.720645 25.8389 0.43934 25.5521C0.158036 25.2652 0 24.8762 0 24.4706V22.9412C0 20.5074 0.948212 18.1734 2.63604 16.4524C4.32387 14.7315 6.61305 13.7647 9 13.7647H15C17.3869 13.7647 19.6761 14.7315 21.364 16.4524C23.0518 18.1734 24 20.5074 24 22.9412Z" fill="white"/>
</svg>
