<svg width="41" height="39" viewBox="0 0 41 39" fill="none" xmlns="http://www.w3.org/2000/svg">
<path d="M39.7956 20.8571C40.5644 21.6205 41 22.6553 41 23.7326C41 24.8098 40.5644 25.8446 39.7956 26.608C39.0269 27.3714 37.9848 27.804 36.9 27.804H4.1C3.01265 27.804 1.96971 27.3714 1.20096 26.608C0.432208 25.8446 0 24.8098 0 23.7326C0 22.6553 0.432208 21.6205 1.20096 20.8571C1.96971 20.0937 3.01265 19.6611 4.1 19.6611H36.9C37.9848 19.6611 39.0269 20.0937 39.7956 20.8571ZM39.2319 30.9169C39.4881 31.1714 39.6333 31.5192 39.6333 31.8754V33.2326C39.6333 34.5982 39.061 36.0571 38.036 37.075C37.011 38.0928 35.5419 38.6611 34.1667 38.6611H6.83333C5.38381 38.6611 3.99323 38.0928 2.96823 37.075C1.94237 36.0571 1.36667 34.5982 1.36667 33.2326V31.8754C1.36667 31.5192 1.51102 31.1714 1.76727 30.9169C2.02352 30.6625 2.37117 30.5183 2.73333 30.5183H38.2667C38.6254 30.5183 38.9756 30.6625 39.2319 30.9169ZM2.93748 16.6754C2.55652 16.4888 2.2234 16.2259 1.96202 15.8951C1.70065 15.5643 1.51956 15.1826 1.43073 14.7754C1.3419 14.3598 1.34958 13.9357 1.45123 13.5285C3.32954 6.17622 11.1469 0.661133 20.5 0.661133C29.8531 0.661133 37.6688 6.17622 39.5479 13.5285C39.6504 13.9357 39.659 14.3598 39.565 14.7754C39.4796 15.1826 39.3002 15.5643 39.0354 15.8951C38.7023 16.2259 38.446 16.4888 38.0617 16.6754C37.6858 16.8535 37.2673 16.9468 36.8402 16.9468H4.15723C3.73527 16.9468 3.31758 16.8535 2.93748 16.6754ZM30.4681 7.84551C30.2119 8.09997 30.0667 8.44774 30.0667 8.80399C30.0667 9.07542 30.1435 9.33836 30.2973 9.5589C30.451 9.77944 30.5877 9.95756 30.9123 10.0593C31.16 10.0848 31.4333 10.1866 31.6981 10.1357C31.9629 10.0848 32.2106 9.95756 32.3985 9.76247C32.595 9.57586 32.7231 9.32988 32.7744 9.06694C32.8256 8.80399 32.7231 8.53256 32.6975 8.28658C32.595 7.96426 32.4156 7.82854 32.1935 7.67586C31.9715 7.52319 31.7067 7.37051 31.4333 7.37051C31.0746 7.37051 30.7244 7.59104 30.4681 7.84551ZM19.5348 5.13037C19.2785 5.38484 19.1333 5.73006 19.1333 6.0897C19.1333 6.35774 19.2102 6.62408 19.364 6.84461C19.5177 7.06515 19.6544 7.24328 19.979 7.34506C20.2267 7.37051 20.5 7.47229 20.7648 7.4214C21.0296 7.37051 21.2773 7.24328 21.4652 7.04819C21.6617 6.86158 21.7898 6.6156 21.841 6.35435C21.8923 6.0914 21.7898 5.81828 21.7642 5.5706C21.6617 5.32207 21.4823 5.11002 21.2602 4.96158C21.0381 4.81229 20.7733 4.65622 20.5 4.65622C20.1413 4.65622 19.791 4.87591 19.5348 5.13037ZM8.60146 7.84551C8.34521 8.09997 8.2 8.44774 8.2 8.80399C8.2 9.07542 8.27687 9.33836 8.43062 9.5589C8.58437 9.77944 8.72104 9.95756 9.04562 10.0593C9.29333 10.0848 9.56667 10.1866 9.83146 10.1357C10.0963 10.0848 10.344 9.95756 10.5319 9.76247C10.7283 9.57586 10.8565 9.32988 10.9077 9.06694C10.959 8.80399 10.8565 8.53256 10.8308 8.28658C10.7283 7.96426 10.549 7.82854 10.3269 7.67586C10.1048 7.52319 9.84 7.37051 9.56667 7.37051C9.20792 7.37051 8.85771 7.59104 8.60146 7.84551Z" fill="white"/>
</svg>
