<svg width="42" height="33" viewBox="0 0 42 33" fill="none" xmlns="http://www.w3.org/2000/svg">
<path d="M29.2222 1.90873L40.9152 14.1496C41.6147 14.8258 41.9644 15.7468 41.9644 16.761C41.9644 17.7753 41.6147 18.6846 40.9152 19.3724L29.2222 31.6599C27.8349 33.1172 25.5733 33.1172 24.186 31.6599C22.7987 30.2027 22.7987 27.8478 24.186 26.3905L29.8051 20.5149H4.50729C2.52543 20.5149 0.928284 18.8478 0.928284 16.7843C0.928284 14.7209 2.52543 13.0538 4.49563 13.0538L29.7935 13.0538L24.1743 7.17814C22.787 5.7209 22.787 3.36598 24.1743 1.90873C25.5733 0.451484 27.8233 0.451484 29.2222 1.90873Z" fill="white"/>
</svg>
